<svg width="25" height="25" viewBox="0 0 25 25" fill="none" xmlns="http://www.w3.org/2000/svg">
<path fill-rule="evenodd" clip-rule="evenodd" d="M12.6404 0.933594C6.12627 0.933594 0.860352 6.23865 0.860352 12.8012C0.860352 18.0471 4.23443 22.4877 8.91524 24.0596C9.50035 24.1775 9.71489 23.8043 9.71489 23.4899C9.71489 23.2148 9.69537 22.2717 9.69537 21.2891C6.41881 21.9966 5.7362 19.8745 5.7362 19.8745C5.2096 18.4991 4.42948 18.1455 4.42948 18.1455C3.35679 17.4184 4.50748 17.4184 4.50748 17.4184C5.69719 17.4971 6.32129 18.6366 6.32129 18.6366C7.37448 20.4444 9.07127 19.9336 9.7539 19.6192C9.8514 18.8529 10.1635 18.3223 10.495 18.0275C7.88156 17.7526 5.1316 16.7308 5.1316 12.1724C5.1316 10.8756 5.59967 9.81461 6.34081 8.98939C6.22379 8.69467 5.81421 7.47647 6.45782 5.84566C6.45782 5.84566 7.45249 5.5313 9.69537 7.06387C10.6316 6.80843 11.6457 6.67089 12.6404 6.67089C13.6351 6.67089 14.6492 6.80843 15.5854 7.06387C17.8282 5.5313 18.8231 5.84566 18.8231 5.84566C19.4665 7.47647 19.057 8.69467 18.94 8.98939C19.7007 9.81461 20.1492 10.8756 20.1492 12.1724C20.1492 16.7308 17.3992 17.7328 14.7663 18.0275C15.1953 18.401 15.5659 19.1082 15.5659 20.2281C15.5659 21.8198 15.5464 23.0968 15.5464 23.4899C15.5464 23.8043 15.7609 24.1775 16.346 24.0596C21.0268 22.4877 24.401 18.0471 24.401 12.8012C24.4204 6.23865 19.135 0.933594 12.6404 0.933594Z" fill="black"/>
</svg>
